HIERARCHY
ROOT hip
{
  OFFSET 5.51535 103.731 -2.80141
  CHANNELS 6 Xposition Yposition Zposition Zrotation Xrotation Yrotation
  JOINT abdomen
  {
    OFFSET 0 -1.186 -1.5018
    CHANNELS 6 Xposition Yposition Zposition Zrotation Xrotation Yrotation
    JOINT abdomen2
    {
      OFFSET 0 9.964 0.2134
      CHANNELS 6 Xposition Yposition Zposition Zrotation Xrotation Yrotation
      JOINT chest
      {
        OFFSET 0 13.134 -3.2573
        CHANNELS 6 Xposition Yposition Zposition Zrotation Xrotation Yrotation
        JOINT neck
        {
          OFFSET 0 20.686 -1.6905
          CHANNELS 6 Xposition Yposition Zposition Zrotation Xrotation Yrotation
          JOINT head
          {
            OFFSET 0 7.23801 -0.1237
            CHANNELS 6 Xposition Yposition Zposition Zrotation Xrotation Yrotation
            End Site
            {
              OFFSET 0 0 0
            }
          }
        }
        JOINT lCollar
        {
          OFFSET 1.7069 20.075 5.0056
          CHANNELS 6 Xposition Yposition Zposition Zrotation Xrotation Yrotation
          JOINT lShldr
          {
            OFFSET 13.6458 -0.0470195 -4.849
            CHANNELS 6 Xposition Yposition Zposition Zrotation Xrotation Yrotation
            JOINT lForeArm
            {
              OFFSET 28.3255 -0.97589 2.2888
              CHANNELS 6 Xposition Yposition Zposition Zrotation Xrotation Yrotation
              JOINT lHand
              {
                OFFSET 22.1583 -0.529998 10.8316
                CHANNELS 6 Xposition Yposition Zposition Zrotation Xrotation Yrotation
                JOINT lThumb1
                {
                  OFFSET 0.786 0.111997 2.5817
                  CHANNELS 6 Xposition Yposition Zposition Zrotation Xrotation Yrotation
                  JOINT lThumb2
                  {
                    OFFSET 0.360097 -0.877999 4.2331
                    CHANNELS 6 Xposition Yposition Zposition Zrotation Xrotation Yrotation
                    JOINT lThumb2_End
                    {
                      OFFSET 1.8127 -1.21601 2.2227
                      CHANNELS 6 Xposition Yposition Zposition Zrotation Xrotation Yrotation
                      End Site
                      {
                        OFFSET 0.0180981 -0.012195 0.0222007
                      }
                    }
                  }
                }
                JOINT lCarpal1
                {
                  OFFSET 0.9571 1.114 1.7695
                  CHANNELS 6 Xposition Yposition Zposition Zrotation Xrotation Yrotation
                  JOINT lIndex1
                  {
                    OFFSET 4.12461 0.486992 4.1451
                    CHANNELS 6 Xposition Yposition Zposition Zrotation Xrotation Yrotation
                    JOINT lIndex2
                    {
                      OFFSET 3.4052 -1.45401 2.7682
                      CHANNELS 6 Xposition Yposition Zposition Zrotation Xrotation Yrotation
                      JOINT lIndex2_End
                      {
                        OFFSET 1.45309 -1.79499 1.2713
                        CHANNELS 6 Xposition Yposition Zposition Zrotation Xrotation Yrotation
                        End Site
                        {
                          OFFSET 0.0144979 -0.0179083 0.0126995
                        }
                      }
                    }
                  }
                  JOINT lMid1
                  {
                    OFFSET 5.6954 0.209987 2.1184
                    CHANNELS 6 Xposition Yposition Zposition Zrotation Xrotation Yrotation
                    JOINT lMid2
                    {
                      OFFSET 3.9766 -1.53999 2.3863
                      CHANNELS 6 Xposition Yposition Zposition Zrotation Xrotation Yrotation
                      JOINT lMid2_End
                      {
                        OFFSET 1.4042 -1.926 1.125
                        CHANNELS 6 Xposition Yposition Zposition Zrotation Xrotation Yrotation
                        End Site
                        {
                          OFFSET 0.013999 -0.0193044 0.011301
                        }
                      }
                    }
                  }
                }
                JOINT lCarpal2
                {
                  OFFSET 2.0956 0.66 -0.3894
                  CHANNELS 6 Xposition Yposition Zposition Zrotation Xrotation Yrotation
                  JOINT lRing1
                  {
                    OFFSET 5.0395 -0.090013 2.4971
                    CHANNELS 6 Xposition Yposition Zposition Zrotation Xrotation Yrotation
                    JOINT lRing2
                    {
                      OFFSET 3.7921 -1.55199 1.4806
                      CHANNELS 6 Xposition Yposition Zposition Zrotation Xrotation Yrotation
                      JOINT lRing2_End
                      {
                        OFFSET 1.4655 -1.808 0.9609
                        CHANNELS 6 Xposition Yposition Zposition Zrotation Xrotation Yrotation
                        End Site
                        {
                          OFFSET 0.0147015 -0.0181014 0.00959957
                        }
                      }
                    }
                  }
                  JOINT lPinky1
                  {
                    OFFSET 4.9141 -1.269 0.3591
                    CHANNELS 6 Xposition Yposition Zposition Zrotation Xrotation Yrotation
                    JOINT lPinky2
                    {
                      OFFSET 3.1477 -1.685 0.8462
                      CHANNELS 6 Xposition Yposition Zposition Zrotation Xrotation Yrotation
                      JOINT lPinky2_End
                      {
                        OFFSET 0.805498 -1.58501 0.795499
                        CHANNELS 6 Xposition Yposition Zposition Zrotation Xrotation Yrotation
                        End Site
                        {
                          OFFSET 0.00809703 -0.0157944 0.00799848
                        }
                      }
                    }
                  }
                }
              }
            }
          }
        }
        JOINT rCollar
        {
          OFFSET -1.7069 20.075 5.0056
          CHANNELS 6 Xposition Yposition Zposition Zrotation Xrotation Yrotation
          JOINT rShldr
          {
            OFFSET -13.6458 -0.0470107 -4.849
            CHANNELS 6 Xposition Yposition Zposition Zrotation Xrotation Yrotation
            JOINT rForeArm
            {
              OFFSET -28.3255 -0.975895 2.2888
              CHANNELS 6 Xposition Yposition Zposition Zrotation Xrotation Yrotation
              JOINT rHand
              {
                OFFSET -22.1583 -0.530007 10.8316
                CHANNELS 6 Xposition Yposition Zposition Zrotation Xrotation Yrotation
                JOINT rThumb1
                {
                  OFFSET -0.785997 0.112005 2.5817
                  CHANNELS 6 Xposition Yposition Zposition Zrotation Xrotation Yrotation
                  JOINT rThumb2
                  {
                    OFFSET -0.360106 -0.877994 4.2331
                    CHANNELS 6 Xposition Yposition Zposition Zrotation Xrotation Yrotation
                    JOINT rThumb2_End
                    {
                      OFFSET -1.8127 -1.216 2.2227
                      CHANNELS 6 Xposition Yposition Zposition Zrotation Xrotation Yrotation
                      End Site
                      {
                        OFFSET -0.0180972 -0.0121973 0.0222005
                      }
                    }
                  }
                }
                JOINT rCarpal1
                {
                  OFFSET -0.9571 1.114 1.7695
                  CHANNELS 6 Xposition Yposition Zposition Zrotation Xrotation Yrotation
                  JOINT rIndex1
                  {
                    OFFSET -4.1246 0.487011 4.1451
                    CHANNELS 6 Xposition Yposition Zposition Zrotation Xrotation Yrotation
                    JOINT rIndex2
                    {
                      OFFSET -3.4052 -1.45401 2.7682
                      CHANNELS 6 Xposition Yposition Zposition Zrotation Xrotation Yrotation
                      JOINT rIndex2_End
                      {
                        OFFSET -1.4531 -1.795 1.2713
                        CHANNELS 6 Xposition Yposition Zposition Zrotation Xrotation Yrotation
                        End Site
                        {
                          OFFSET -0.0145077 -0.0180048 0.0127017
                        }
                      }
                    }
                  }
                  JOINT rMid1
                  {
                    OFFSET -5.6954 0.210002 2.1184
                    CHANNELS 6 Xposition Yposition Zposition Zrotation Xrotation Yrotation
                    JOINT rMid2
                    {
                      OFFSET -3.9766 -1.54 2.3863
                      CHANNELS 6 Xposition Yposition Zposition Zrotation Xrotation Yrotation
                      JOINT rMid2_End
                      {
                        OFFSET -1.4042 -1.926 1.125
                        CHANNELS 6 Xposition Yposition Zposition Zrotation Xrotation Yrotation
                        End Site
                        {
                          OFFSET -0.0139948 -0.0192916 0.0112994
                        }
                      }
                    }
                  }
                }
                JOINT rCarpal2
                {
                  OFFSET -2.0956 0.66 -0.3894
                  CHANNELS 6 Xposition Yposition Zposition Zrotation Xrotation Yrotation
                  JOINT rRing1
                  {
                    OFFSET -5.03951 -0.0899879 2.4971
                    CHANNELS 6 Xposition Yposition Zposition Zrotation Xrotation Yrotation
                    JOINT rRing2
                    {
                      OFFSET -3.7921 -1.55201 1.4806
                      CHANNELS 6 Xposition Yposition Zposition Zrotation Xrotation Yrotation
                      JOINT rRing2_End
                      {
                        OFFSET -1.4655 -1.808 0.960901
                        CHANNELS 6 Xposition Yposition Zposition Zrotation Xrotation Yrotation
                        End Site
                        {
                          OFFSET -0.0146934 -0.0180999 0.00959832
                        }
                      }
                    }
                  }
                  JOINT rPinky1
                  {
                    OFFSET -4.91411 -1.26899 0.359202
                    CHANNELS 6 Xposition Yposition Zposition Zrotation Xrotation Yrotation
                    JOINT rPinky2
                    {
                      OFFSET -3.14769 -1.68501 0.846199
                      CHANNELS 6 Xposition Yposition Zposition Zrotation Xrotation Yrotation
                      JOINT rPinky2_End
                      {
                        OFFSET -0.805498 -1.585 0.7955
                        CHANNELS 6 Xposition Yposition Zposition Zrotation Xrotation Yrotation
                        End Site
                        {
                          OFFSET -0.00810035 -0.0158035 0.00800029
                        }
                      }
                    }
                  }
                }
              }
            }
          }
        }
      }
    }
  }
  JOINT lThigh
  {
    OFFSET 8.367 -8.2066 0.5982
    CHANNELS 6 Xposition Yposition Zposition Zrotation Xrotation Yrotation
    JOINT lShin
    {
      OFFSET 2.1923 -43.463 -0.4932
      CHANNELS 6 Xposition Yposition Zposition Zrotation Xrotation Yrotation
      JOINT lFoot
      {
        OFFSET 0.733301 -45.8593 -2.6451
        CHANNELS 6 Xposition Yposition Zposition Zrotation Xrotation Yrotation
        End Site
        {
          OFFSET 2.6618 -4.2699 12.3931
        }
      }
    }
  }
  JOINT rThigh
  {
    OFFSET -8.367 -8.2066 0.5982
    CHANNELS 6 Xposition Yposition Zposition Zrotation Xrotation Yrotation
    JOINT rShin
    {
      OFFSET -2.1923 -43.463 -0.4931
      CHANNELS 6 Xposition Yposition Zposition Zrotation Xrotation Yrotation
      JOINT rFoot
      {
        OFFSET -0.733299 -45.8593 -2.6451
        CHANNELS 6 Xposition Yposition Zposition Zrotation Xrotation Yrotation
        End Site
        {
          OFFSET -2.6618 -4.2699 12.3931
        }
      }
    }
  }
}
MOTION
Frames:	4
Frame Time:	0.0333333
-41.967 100.055 -52.8321 -0.634983 6.14336 101.884 -2.256e-007 -1.186 -1.5018 -4.14112e-005 -2.15289 1.02155 1.13047e-006 9.964 0.213402 0.0384023 -4.30545 2.04523 -1.85873e-006 13.134 -3.2573 0.0384041 -4.30545 2.04525 7.82378e-006 20.6861 -1.69048 -0.572265 13.6138 -8.57442 6.53374e-007 7.23801 -0.123702 -6.32937 -1.09987 -8.80755 1.7069 20.075 5.0056 0.496441 0.855962 8.23868 13.6458 -0.0470115 -4.849 -74.2297 -0.445592 34.0689 28.3255 -0.975905 2.28882 -1.61843 8.31243 -8.63808 22.1583 -0.530001 10.8316 -26.7084 -34.8359 -2.27114 0.786003 0.111999 2.5817 0.000355069 0.000290561 1.1537e-005 0.360099 -0.878 4.2331 -0.000265593 -0.000196088 6.74519e-006 1.8127 -1.21601 2.2227 -0.000182328 5.89415e-005 1.75608e-005 0.9571 1.114 1.7695 7.95139e-016 0 -3.18055e-015 4.12461 0.486986 4.1451 -8.93066e-005 -0.000107622 0.00017685 3.4052 -1.45401 2.7682 0.000363792 0.0001144 -3.45734e-006 1.4531 -1.79499 1.2713 -0.000173454 3.45701e-005 2.85415e-005 5.69541 0.209989 2.1184 2.01424 -1.01022 -0.822496 3.9766 -1.53999 2.3863 2.01523 -1.01084 -0.822913 1.4042 -1.926 1.125 2.0153 -1.01095 -0.823218 2.0956 0.66 -0.3894 7.95139e-016 0 -3.18055e-015 5.0395 -0.0900133 2.4971 1.83551 -3.86134 -5.61321 3.7921 -1.55199 1.4806 4.41724 -2.45616 -2.02478 1.4655 -1.808 0.960898 4.41749 -2.45618 -2.02484 4.9141 -1.26901 0.359102 10.759 -6.72879 -4.53615 3.1477 -1.685 0.846196 3.85857 -2.2813 -1.74599 0.8055 -1.58501 0.795503 2.70806 -1.58472 -1.23798 -1.7069 20.075 5.0056 -43.5806 -1.20691 5.58143 -13.6458 -0.0470125 -4.849 -9.49804 -41.9546 -7.4227 -28.3255 -0.975889 2.28879 7.44666 -33.1736 10.5123 -22.1583 -0.530002 10.8316 11.1043 -20.0447 -6.44029 -0.785998 0.112004 2.5817 -19.2122 49.9311 17.782 -0.360103 -0.877994 4.2331 -0.518564 0.461995 -1.59063 -1.8127 -1.216 2.2227 -2.77347 2.81313 -9.01339 -0.9571 1.114 1.7695 -9.54166e-015 -3.18055e-015 -3.18055e-015 -4.12461 0.487011 4.14511 -23.6185 3.40204 -15.5055 -3.4052 -1.45401 2.76821 39.4979 10.0978 -9.2747 -1.4531 -1.795 1.2713 38.8029 9.98602 -9.06151 -5.69541 0.21 2.1184 -1.04221 5.48643 -10.0637 -3.9766 -1.54 2.3863 52.309 13.5299 -14.1045 -1.4042 -1.926 1.12499 44.0035 12.3921 -11.1857 -2.0956 0.66 -0.3894 -9.54166e-015 -3.18055e-015 -3.18055e-015 -5.03951 -0.089988 2.4971 16.4926 0.27505 -5.65902 -3.7921 -1.55201 1.4806 37.334 11.9096 -10.7863 -1.4655 -1.80801 0.960895 38.6322 12.1694 -11.2725 -4.91411 -1.26899 0.359206 24.6637 -0.263268 -2.07535 -3.14769 -1.68501 0.846193 30.529 11.315 -8.19445 -0.805499 -1.585 0.795495 30.4595 11.2958 -8.16997 8.367 -8.20661 0.598201 -24.2703 2.40004 -2.00818 2.19231 -43.4631 -0.493195 0.50887 -1.58589 0.984152 0.733302 -45.8593 -2.6451 10.3239 0.0168231 -6.19627 -8.367 -8.20661 0.598206 -2.02137 -16.0584 45.6678 -2.19296 -43.463 -0.492354 13.3793 41.8691 -5.65696 -0.733304 -45.8593 -2.6451 -15.7807 3.30255 -23.1801 
-41.8929 100.024 -52.9064 -0.723753 6.23375 102.282 1.47769e-006 -1.18599 -1.5018 -0.0172284 -2.14463 0.976143 3.63242e-007 9.964 0.213401 0.00213191 -4.28925 1.95363 -2.15208e-006 13.134 -3.2573 0.00212682 -4.28925 1.9536 -9.87779e-007 20.686 -1.6905 -0.568937 13.4715 -8.55138 1.53064e-006 7.23801 -0.123701 -6.39336 -1.12832 -8.82989 1.7069 20.075 5.0056 0.61635 0.869423 8.36152 13.6458 -0.04702 -4.849 -74.2587 -0.389815 33.8049 28.3255 -0.975898 2.2888 -1.69903 8.30366 -8.64989 22.1583 -0.52999 10.8316 -25.7741 -35.0409 -2.06561 0.786006 0.111997 2.5817 0.0104413 0.00692484 0.0327134 0.360099 -0.878 4.2331 -0.00719707 -0.00103075 -0.012692 1.81269 -1.21601 2.2227 0.0154247 0.00192907 0.0286113 0.9571 1.114 1.7695 1.59028e-015 0 1.59028e-015 4.1246 0.486996 4.1451 -0.0421991 0.029375 0.0442154 3.4052 -1.454 2.7682 -0.029475 0.0133453 0.0122065 1.4531 -1.79499 1.2713 -0.037026 0.0163698 0.0150932 5.6954 0.209984 2.11841 1.98034 -0.982243 -0.803416 3.9766 -1.53999 2.3863 1.96722 -0.986335 -0.803644 1.4042 -1.926 1.125 1.97977 -0.992819 -0.808975 2.0956 0.66 -0.3894 1.59028e-015 0 1.59028e-015 5.03951 -0.0900102 2.4971 1.80266 -3.83777 -5.58503 3.7921 -1.55199 1.4806 4.36405 -2.4254 -2.0013 1.4655 -1.808 0.960898 4.37633 -2.43238 -2.00669 4.9141 -1.26901 0.359099 10.6961 -6.691 -4.5195 3.1477 -1.68501 0.846202 3.81408 -2.24542 -1.72139 0.805495 -1.585 0.795498 2.6719 -1.56304 -1.22184 -1.7069 20.075 5.0056 -43.636 -1.21404 5.36738 -13.6458 -0.047011 -4.849 -9.7825 -41.932 -7.45155 -28.3255 -0.975886 2.2888 7.18964 -32.8572 10.0015 -22.1583 -0.529993 10.8316 11.436 -20.3273 -6.21076 -0.785997 0.112006 2.5817 -19.2122 49.9311 17.782 -0.360102 -0.877995 4.2331 -0.518581 0.461987 -1.59063 -1.8127 -1.216 2.2227 -2.77349 2.81313 -9.01341 -0.9571 1.114 1.7695 0 0 -9.54166e-015 -4.12461 0.487012 4.14511 -23.6185 3.40205 -15.5055 -3.4052 -1.45401 2.76819 39.4979 10.0978 -9.27469 -1.4531 -1.795 1.2713 38.8029 9.986 -9.06152 -5.69541 0.210001 2.11841 -1.04221 5.48644 -10.0637 -3.9766 -1.54 2.3863 52.309 13.5299 -14.1045 -1.4042 -1.92599 1.12501 44.0035 12.3921 -11.1857 -2.0956 0.66 -0.3894 0 0 -9.54166e-015 -5.03951 -0.0899877 2.4971 16.4925 0.275021 -5.65903 -3.7921 -1.55201 1.4806 37.334 11.9096 -10.7863 -1.4655 -1.808 0.960905 38.6322 12.1694 -11.2725 -4.9141 -1.26899 0.359198 24.6637 -0.263251 -2.07536 -3.14769 -1.68501 0.846193 30.529 11.3149 -8.19442 -0.805501 -1.58499 0.795505 30.4595 11.2958 -8.16998 8.367 -8.2066 0.598201 -24.4054 2.48345 -2.33928 2.19231 -43.4631 -0.493194 0.507416 -1.52786 0.979142 0.733309 -45.8593 -2.6451 10.2658 -8.67108e-005 -6.27506 -8.367 -8.2066 0.5982 -2.2434 -15.999 45.4329 -2.19176 -43.463 -0.493734 13.4086 41.9205 -5.67966 -0.733297 -45.8593 -2.6451 -15.7317 3.07948 -23.304 
-41.8079 99.991 -52.9882 -0.794449 6.31869 102.698 -1.53178e-006 -1.186 -1.5018 -0.0373158 -2.12695 0.917068 -1.10464e-006 9.964 0.213402 -0.0405636 -4.25422 1.83482 -1.88298e-007 13.134 -3.2573 -0.040568 -4.25422 1.8348 1.74402e-006 20.686 -1.6905 -0.568966 13.3344 -8.56824 3.23316e-006 7.23801 -0.123701 -6.42177 -1.15571 -8.84525 1.7069 20.075 5.0056 0.768349 0.880826 8.46467 13.6458 -0.0470179 -4.849 -74.3378 -0.315874 33.5684 28.3255 -0.975914 2.28881 -1.65803 8.3012 -8.70576 22.1583 -0.529999 10.8316 -25.3259 -35.3117 -2.1245 0.786007 0.111998 2.5817 0.0400641 0.0263374 0.127815 0.360096 -0.877998 4.2331 -0.0141115 -0.00185862 -0.0253973 1.8127 -1.21602 2.2227 0.0310074 0.00381411 0.0571997 0.9571 1.114 1.7695 -1.59028e-015 0 -0 4.1246 0.48699 4.14511 -0.164722 0.11515 0.172346 3.4052 -1.45401 2.7682 -0.116314 0.0518012 0.0477694 1.4531 -1.79499 1.2713 -0.14427 0.0638378 0.0590165 5.6954 0.209988 2.1184 1.88192 -0.900874 -0.747857 3.9766 -1.53999 2.3863 1.82736 -0.915082 -0.747457 1.4042 -1.926 1.125 1.87643 -0.940146 -0.767479 2.0956 0.66 -0.3894 -1.59028e-015 0 -0 5.0395 -0.0900177 2.4971 1.70822 -3.76609 -5.50488 3.7921 -1.55199 1.4806 4.20926 -2.33603 -1.93286 1.4655 -1.808 0.960902 4.25659 -2.36321 -1.95376 4.91411 -1.269 0.359104 10.5133 -6.58121 -4.47088 3.1477 -1.685 0.846203 3.69047 -2.16538 -1.66461 0.805498 -1.58501 0.795498 2.56666 -1.50007 -1.17482 -1.7069 20.075 5.0056 -43.6981 -1.22008 5.20013 -13.6458 -0.0470116 -4.849 -9.93738 -41.9128 -7.54884 -28.3255 -0.975891 2.28879 7.04489 -32.7964 9.75386 -22.1583 -0.53001 10.8316 11.5945 -20.3383 -6.09951 -0.785997 0.112005 2.5817 -19.2122 49.9311 17.7821 -0.360103 -0.877994 4.2331 -0.518573 0.462001 -1.59063 -1.81269 -1.216 2.22269 -2.77347 2.81313 -9.01339 -0.9571 1.114 1.7695 -6.36111e-015 3.18055e-015 -0 -4.12461 0.487012 4.14511 -23.6185 3.40204 -15.5055 -3.4052 -1.45401 2.76819 39.4979 10.0978 -9.2747 -1.4531 -1.795 1.2713 38.8029 9.98603 -9.06152 -5.69541 0.210003 2.11841 -1.04222 5.48643 -10.0637 -3.9766 -1.54 2.3863 52.309 13.5299 -14.1045 -1.4042 -1.92599 1.12501 44.0035 12.3921 -11.1857 -2.0956 0.66 -0.3894 -6.36111e-015 3.18055e-015 -0 -5.03951 -0.0899859 2.4971 16.4925 0.275056 -5.65903 -3.7921 -1.552 1.4806 37.334 11.9096 -10.7862 -1.4655 -1.808 0.960906 38.6322 12.1694 -11.2725 -4.9141 -1.26899 0.359199 24.6637 -0.263265 -2.07535 -3.14769 -1.68501 0.846194 30.529 11.315 -8.19443 -0.805499 -1.585 0.795495 30.4595 11.2958 -8.16997 8.367 -8.2066 0.598201 -24.5211 2.61937 -2.51635 2.1923 -43.4631 -0.493195 0.50571 -1.52235 0.968267 0.733303 -45.8593 -2.6451 10.1713 -0.0258457 -6.55989 -8.367 -8.2066 0.598197 -2.49629 -15.9177 45.0686 -2.19189 -43.463 -0.493577 13.4266 41.9574 -5.69526 -0.733304 -45.8593 -2.64509 -15.672 2.88326 -23.4061 
-41.7193 99.9583 -53.0729 -0.832684 6.43765 103.346 6.88085e-007 -1.186 -1.5018 -0.0704655 -2.08322 0.806363 -1.09283e-006 9.964 0.213401 -0.111655 -4.16722 1.61176 -5.42723e-007 13.134 -3.2573 -0.111659 -4.16723 1.61173 1.66012e-006 20.686 -1.6905 -0.571665 13.2003 -8.68959 -2.28016e-006 7.238 -0.1237 -6.46032 -1.25505 -8.83618 1.7069 20.075 5.0056 0.970728 0.900645 8.64401 13.6458 -0.0470112 -4.849 -74.4479 -0.196068 33.1647 28.3255 -0.975914 2.28881 -1.57882 8.30994 -8.65273 22.1583 -0.529999 10.8316 -25.3308 -35.6133 -2.16726 0.786001 0.111994 2.5817 0.0875269 0.0575947 0.280874 0.360097 -0.878001 4.2331 -0.0336234 -0.00418027 -0.061138 1.8127 -1.21601 2.2227 0.0748976 0.00915415 0.137653 0.9571 1.114 1.7695 8.82781e-032 3.18055e-015 -1.59028e-015 4.1246 0.486989 4.1451 -0.362132 0.253067 0.378797 3.4052 -1.45401 2.76821 -0.256192 0.113598 0.105142 1.4531 -1.79499 1.2713 -0.316978 0.140094 0.129891 5.6954 0.209987 2.1184 1.72325 -0.769994 -0.658307 3.9766 -1.53999 2.3863 1.60222 -0.800738 -0.656671 1.4042 -1.926 1.125 1.71008 -0.85553 -0.70049 2.0956 0.66 -0.3894 8.82781e-032 3.18055e-015 -1.59028e-015 5.0395 -0.0900106 2.4971 1.55633 -3.65086 -5.37564 3.7921 -1.552 1.4806 3.95984 -2.19254 -1.82218 1.4655 -1.808 0.960898 4.06376 -2.25213 -1.86829 4.91411 -1.269 0.359099 10.2187 -6.40493 -4.39187 3.1477 -1.68501 0.8462 3.47355 -2.04667 -1.57735 0.805499 -1.58501 0.795498 2.40379 -1.39142 -1.09785 -1.7069 20.075 5.0056 -43.8382 -1.22872 4.99216 -13.6458 -0.047014 -4.849 -9.9318 -41.8951 -7.75123 -28.3255 -0.975892 2.28879 7.2267 -33.0472 9.89077 -22.1583 -0.530002 10.8316 11.4621 -20.0329 -6.11138 -0.785998 0.112005 2.5817 -19.2122 49.9311 17.7821 -0.360104 -0.877996 4.2331 -0.51856 0.462013 -1.59062 -1.8127 -1.216 2.2227 -2.7735 2.81314 -9.0134 -0.9571 1.114 1.7695 3.18055e-015 0 -0 -4.12461 0.487011 4.14511 -23.6185 3.40204 -15.5055 -3.4052 -1.45401 2.76821 39.4979 10.0978 -9.2747 -1.4531 -1.795 1.2713 38.8029 9.98602 -9.06152 -5.69541 0.210003 2.11841 -1.04222 5.48643 -10.0637 -3.9766 -1.54 2.3863 52.309 13.5299 -14.1045 -1.4042 -1.92599 1.12501 44.0035 12.3921 -11.1857 -2.0956 0.66 -0.3894 3.18055e-015 0 -0 -5.03951 -0.0899856 2.4971 16.4925 0.275096 -5.65903 -3.7921 -1.55201 1.4806 37.334 11.9096 -10.7863 -1.4655 -1.80801 0.960896 38.6322 12.1694 -11.2725 -4.91411 -1.26899 0.359205 24.6637 -0.263262 -2.07535 -3.1477 -1.685 0.846204 30.529 11.315 -8.19443 -0.805499 -1.585 0.795495 30.4595 11.2958 -8.16997 8.367 -8.20659 0.598199 -24.6508 2.86514 -2.92703 2.19231 -43.4631 -0.493192 0.503656 -1.50764 0.96294 0.733306 -45.8593 -2.6451 10.1335 0.0417466 -6.92963 -8.367 -8.20659 0.598202 -2.89749 -15.7548 44.3787 -2.19214 -43.463 -0.4933 13.4181 41.9417 -5.6873 -0.733301 -45.8593 -2.6451 -15.621 2.68304 -23.4813 
